<svg width="32" height="32" viewBox="0 0 32 32" fill="none" xmlns="http://www.w3.org/2000/svg">
<g clip-path="url(#clip0_1138_29471)">
<path d="M27.43 6.09998H25.91V25.91H27.43V24.38H32V22.86H27.43V19.81H32V18.29H27.43V13.72H32V12.19H27.43V9.14998H32V7.61998H27.43V6.09998Z" fill="#000001"/>
<path d="M6.09998 25.91V27.43H7.61998V32H9.13998V27.43H12.19V32H13.72V27.43H18.29V32H19.81V27.43H22.86V32H24.38V27.43H25.91V25.91H6.09998Z" fill="#000001"/>
<path d="M22.86 7.62H9.14V9.14999H7.62V22.86H9.14V21.34H12.19V19.81H15.24V18.29H16.76V16.77H18.29V15.24H19.81V13.72H21.33V10.67H22.86V22.86H24.38V9.14999H22.86V7.62ZM13.72 15.24H10.67V13.72H13.72V15.24ZM18.29 12.19H10.67V10.67H18.29V12.19Z" fill="#000001"/>
<path d="M22.86 22.86H9.14001V24.38H22.86V22.86Z" fill="#000001"/>
<path d="M21.3301 19.8101H19.8101V21.3401H21.3301V19.8101Z" fill="#000001"/>
<path d="M18.29 19.8101H16.76V21.3401H18.29V19.8101Z" fill="#000001"/>
<path d="M25.91 6.1V4.58H24.38V0H22.86V4.58H19.81V0H18.29V4.58H13.72V0H12.19V4.58H9.13998V0H7.61998V4.58H6.09998V6.1H25.91Z" fill="#000001"/>
<path d="M6.1 6.09998H4.57V7.61998H0V9.14998H4.57V12.19H0V13.72H4.57V18.29H0V19.81H4.57V22.86H0V24.38H4.57V25.91H6.1V6.09998Z" fill="#000001"/>
</g>
<defs>
<clipPath id="clip0_1138_29471">
<rect width="32" height="32" fill="white"/>
</clipPath>
</defs>
</svg>
