<svg width="32" height="32" viewBox="0 0 32 32" fill="none" xmlns="http://www.w3.org/2000/svg">
<g clip-path="url(#clip0_1138_29481)">
<path d="M30.48 9.14001H28.95V13.72H22.86V15.24H24.38V16.76H25.91V15.24H27.43V16.76H28.95V15.24H30.48V16.76H28.95V18.29H30.48V19.81H32V12.19H30.48V9.14001Z" fill="#000001"/>
<path d="M28.95 21.33H27.43V19.81H25.91V18.29H24.38V19.81H22.86V18.29H21.33V16.76H22.86V15.24H21.33V13.72H19.81V18.29H18.29V19.81H13.71V21.33H18.29V22.86H19.81V25.91H21.33V28.95H19.81V30.48H22.86V28.95H25.91V27.43H27.43V25.91H28.95V22.86H30.48V19.81H28.95V21.33Z" fill="#000001"/>
<path d="M28.9501 18.29H27.4301V19.81H28.9501V18.29Z" fill="#000001"/>
<path d="M28.9501 6.09998H27.4301V9.13998H28.9501V6.09998Z" fill="#000001"/>
<path d="M27.43 16.76H25.91V18.29H27.43V16.76Z" fill="#000001"/>
<path d="M27.43 4.56995H25.91V6.09995H27.43V4.56995Z" fill="#000001"/>
<path d="M24.38 16.76H22.86V18.29H24.38V16.76Z" fill="#000001"/>
<path d="M25.91 3.05005H22.86V4.57005H25.91V3.05005Z" fill="#000001"/>
<path d="M22.8601 1.53003H19.8101V3.05003H22.8601V1.53003Z" fill="#000001"/>
<path d="M19.81 12.1899H18.29V13.7199H19.81V12.1899Z" fill="#000001"/>
<path d="M19.8099 30.48H12.1899V32H19.8099V30.48Z" fill="#000001"/>
<path d="M18.29 13.72H13.71V18.29H18.29V13.72ZM16.76 16.76H15.24V15.24H16.76V16.76Z" fill="#000001"/>
<path d="M13.7099 6.1H15.2399V1.53H19.8099V0H12.1899V1.53H13.7099V6.1Z" fill="#000001"/>
<path d="M13.7099 18.29H12.1899V19.81H13.7099V18.29Z" fill="#000001"/>
<path d="M12.19 28.95H9.14001V30.4799H12.19V28.95Z" fill="#000001"/>
<path d="M12.19 13.72H13.71V12.19H18.29V10.67H16.76V6.09998H15.24V10.67H13.71V9.13998H12.19V12.19H9.14001V13.72H10.67V18.29H12.19V13.72Z" fill="#000001"/>
<path d="M12.19 6.09998H10.67V9.13998H12.19V6.09998Z" fill="#000001"/>
<path d="M12.19 24.38H9.14001V25.91H12.19V24.38Z" fill="#000001"/>
<path d="M9.13998 27.4301H6.09998V28.9501H9.13998V27.4301Z" fill="#000001"/>
<path d="M9.14 22.86H7.62V24.38H9.14V22.86Z" fill="#000001"/>
<path d="M9.13998 10.67H6.09998V12.19H9.13998V10.67Z" fill="#000001"/>
<path d="M9.13998 6.10003H10.67V3.05003H12.19V1.53003H9.13998V3.05003H6.09998V4.57003H9.13998V6.10003Z" fill="#000001"/>
<path d="M7.61998 19.8101H6.09998V22.8601H7.61998V19.8101Z" fill="#000001"/>
<path d="M6.09995 25.91H4.56995V27.43H6.09995V25.91Z" fill="#000001"/>
<path d="M6.09995 4.56995H4.56995V6.09995H6.09995V4.56995Z" fill="#000001"/>
<path d="M4.57005 22.86H3.05005V25.91H4.57005V22.86Z" fill="#000001"/>
<path d="M3.05002 19.8101H1.52002V22.8601H3.05002V19.8101Z" fill="#000001"/>
<path d="M3.05002 10.67H6.10002V9.13998H4.57002V6.09998H3.05002V9.13998H1.52002V12.19H3.05002V10.67Z" fill="#000001"/>
<path d="M1.52 12.1899H0V19.8099H1.52V12.1899Z" fill="#000001"/>
</g>
<defs>
<clipPath id="clip0_1138_29481">
<rect width="32" height="32" fill="white"/>
</clipPath>
</defs>
</svg>
