<svg width="32" height="31" viewBox="0 0 32 31" fill="none" xmlns="http://www.w3.org/2000/svg">
<path d="M28.9601 9.14999V7.62H27.4301V10.67H30.4801V15.24H27.4301V18.29H28.9601V16.77H32.0001V9.14999H28.9601Z" fill="#000001"/>
<path d="M27.43 18.29H25.91V19.81H27.43V18.29Z" fill="#000001"/>
<path d="M27.43 6.09998H25.91V7.61998H27.43V6.09998Z" fill="#000001"/>
<path d="M25.91 4.57996H22.86V6.09996H25.91V4.57996Z" fill="#000001"/>
<path d="M25.91 19.8101H16.77V21.3401H25.91V19.8101Z" fill="#000001"/>
<path d="M15.24 25.91V18.29H18.29V16.77H19.81V15.24H21.34V7.62003H19.81V1.53003H18.29V7.62003H16.77V1.53003H15.24V7.62003H13.72V1.53003H12.2V7.62003H10.67V1.53003H9.14999V7.62003H7.62V15.24H9.14999V16.77H10.67V18.29H13.72V25.91H15.24ZM16.77 10.67H18.29V12.19H16.77V10.67ZM10.67 10.67H12.2V12.19H10.67V10.67ZM12.2 16.77V15.24H10.67V13.72H12.2V15.24H16.77V13.72H18.29V15.24H16.77V16.77H12.2Z" fill="#000001"/>
<path d="M18.29 0H16.77V1.53H18.29V0Z" fill="#000001"/>
<path d="M13.72 25.91H10.67V27.43H13.72V25.91Z" fill="#000001"/>
<path d="M12.2 0H10.67V1.53H12.2V0Z" fill="#000001"/>
<path d="M10.67 27.4301H9.15002V28.9601H10.67V27.4301Z" fill="#000001"/>
<path d="M9.14999 28.96H7.62V30.48H9.14999V28.96Z" fill="#000001"/>
<path d="M10.67 19.8101H1.53003V21.3401H10.67V19.8101Z" fill="#000001"/>
<path d="M6.10003 4.57996H1.53003V6.09996H6.10003V4.57996Z" fill="#000001"/>
<path d="M1.53 6.09998H0V19.81H1.53V6.09998Z" fill="#000001"/>
</svg>
