<svg width="29" height="32" viewBox="0 0 29 32" fill="none" xmlns="http://www.w3.org/2000/svg">
<path d="M28.95 22.8601H24.38V21.3301H25.9V19.8101H3.05V21.3301H4.575V22.8601H0V32.0001H28.95V22.8601ZM6.09 21.3301H22.85V22.8601H6.09V21.3301ZM27.43 30.4801H1.52V24.3801H27.43V30.4801Z" fill="#000001"/>
<path d="M27.43 1.52002H25.9V19.81H27.43V1.52002Z" fill="#000001"/>
<path d="M24.38 25.9H16.76V27.43H24.38V25.9Z" fill="#000001"/>
<path d="M18.28 10.67H16.76V12.19H18.28V10.67Z" fill="#000001"/>
<path d="M18.28 7.62H16.76V9.14H18.28V7.62Z" fill="#000001"/>
<path d="M16.76 12.1899H12.19V13.7099H16.76V12.1899Z" fill="#000001"/>
<path d="M12.19 10.67H10.66V12.19H12.19V10.67Z" fill="#000001"/>
<path d="M12.19 7.62H10.66V9.14H12.19V7.62Z" fill="#000001"/>
<path d="M4.57501 18.29H24.385V3.05005H4.57501V18.29ZM6.09001 4.57005H22.85V16.76H6.09001V4.57005Z" fill="#000001"/>
<path d="M7.62001 25.9H4.57001V28.95H7.62001V25.9Z" fill="#000001"/>
<path d="M25.9 0H3.04999V1.52H25.9V0Z" fill="#000001"/>
<path d="M3.05002 1.52002H1.52002V19.81H3.05002V1.52002Z" fill="#000001"/>
</svg>
