<svg width="32" height="32" viewBox="0 0 32 32" fill="none" xmlns="http://www.w3.org/2000/svg">
<g clip-path="url(#clip0_1138_29449)">
<path d="M32 21.34H30.48V28.96H32V21.34Z" fill="#000001"/>
<path d="M30.48 0H1.53V1.53H0V19.81H1.53V21.34H9.14V19.81H3.05V1.53H28.95V6.1H27.43V15.24H28.95V16.77H30.48V18.29H32V1.53H30.48V0ZM30.48 13.72H28.95V10.67H30.48V13.72ZM30.48 9.15H28.95V7.62H30.48V9.15Z" fill="#000001"/>
<path d="M30.4799 28.96H28.95V30.48H30.4799V28.96Z" fill="#000001"/>
<path d="M30.4799 19.8101H28.95V21.3401H30.4799V19.8101Z" fill="#000001"/>
<path d="M28.9501 30.48H27.4301V32H28.9501V30.48Z" fill="#000001"/>
<path d="M28.9501 18.29H27.4301V19.81H28.9501V18.29Z" fill="#000001"/>
<path d="M21.3301 16.77V10.67H19.8101V18.29H27.4301V16.77H21.3301Z" fill="#000001"/>
<path d="M25.91 19.8101H24.38V24.3801H25.91V19.8101Z" fill="#000001"/>
<path d="M24.38 4.57996H22.86V6.09996H24.38V4.57996Z" fill="#000001"/>
<path d="M22.86 6.09998H21.33V7.61998H22.86V6.09998Z" fill="#000001"/>
<path d="M21.3301 19.8101H19.8101V24.3801H21.3301V19.8101Z" fill="#000001"/>
<path d="M19.81 9.15002H16.76V10.67H19.81V9.15002Z" fill="#000001"/>
<path d="M18.29 3.05005H16.76V7.62005H18.29V3.05005Z" fill="#000001"/>
<path d="M16.76 28.96H15.24V32H16.76V28.96Z" fill="#000001"/>
<path d="M15.2399 18.29H12.1899V19.81H15.2399V22.86H16.7599V10.67H15.2399V18.29Z" fill="#000001"/>
<path d="M15.24 27.4301H13.72V28.9601H15.24V27.4301Z" fill="#000001"/>
<path d="M13.7199 25.91H12.1899V27.43H13.7199V25.91Z" fill="#000001"/>
<path d="M13.7199 6.09998H12.1899V7.61998H13.7199V6.09998Z" fill="#000001"/>
<path d="M12.19 19.8101H10.67V25.9101H12.19V19.8101Z" fill="#000001"/>
<path d="M12.19 4.57996H10.67V6.09996H12.19V4.57996Z" fill="#000001"/>
</g>
<defs>
<clipPath id="clip0_1138_29449">
<rect width="32" height="32" fill="white"/>
</clipPath>
</defs>
</svg>
