<svg width="32" height="32" viewBox="0 0 32 32" fill="none" xmlns="http://www.w3.org/2000/svg">
<g clip-path="url(#clip0_1138_29425)">
<path d="M31.24 1.53003H29.71V19.81H31.24V1.53003Z" fill="#000001"/>
<path d="M2.28001 30.48V28.96H0.76001V32H31.24V28.96H29.71V30.48H2.28001Z" fill="#000001"/>
<path d="M29.7101 27.4301H28.1901V28.9601H29.7101V27.4301Z" fill="#000001"/>
<path d="M28.19 25.91H26.67V27.43H28.19V25.91Z" fill="#000001"/>
<path d="M6.86003 22.8601V24.3801H25.14V22.8601H20.57V21.3401H29.71V19.8101H2.28003V21.3401H11.43V22.8601H6.86003ZM12.95 21.3401H19.05V22.8601H12.95V21.3401Z" fill="#000001"/>
<path d="M26.67 24.38H25.14V25.91H26.67V24.38Z" fill="#000001"/>
<path d="M28.1901 3.05005H3.81006V18.29H28.1901V3.05005ZM26.6701 16.76H5.33006V4.57005H26.6701V16.76Z" fill="#000001"/>
<path d="M25.14 27.4301H23.62V28.9601H25.14V27.4301Z" fill="#000001"/>
<path d="M23.62 25.91H22.09V27.43H23.62V25.91Z" fill="#000001"/>
<path d="M19.05 10.67H20.57V12.19H22.09V10.67H23.62V9.14998H25.14V7.61998H23.62V6.09998H22.09V7.61998H20.57V6.09998H19.05V7.61998H17.52V9.14998H19.05V10.67Z" fill="#000001"/>
<path d="M20.57 27.4301H19.05V28.9601H20.57V27.4301Z" fill="#000001"/>
<path d="M19.05 25.91H17.52V27.43H19.05V25.91Z" fill="#000001"/>
<path d="M16 27.4301H14.47V28.9601H16V27.4301Z" fill="#000001"/>
<path d="M14.47 25.91H12.95V27.43H14.47V25.91Z" fill="#000001"/>
<path d="M12.9501 27.4301H11.4301V28.9601H12.9501V27.4301Z" fill="#000001"/>
<path d="M9.9 25.91H8.38V27.43H9.9V25.91Z" fill="#000001"/>
<path d="M8.37999 27.4301H6.85999V28.9601H8.37999V27.4301Z" fill="#000001"/>
<path d="M6.85996 24.38H5.32996V25.91H6.85996V24.38Z" fill="#000001"/>
<path d="M5.33006 25.91H3.81006V27.43H5.33006V25.91Z" fill="#000001"/>
<path d="M29.71 0H2.28003V1.53H29.71V0Z" fill="#000001"/>
<path d="M3.81003 27.4301H2.28003V28.9601H3.81003V27.4301Z" fill="#000001"/>
<path d="M2.28001 1.53003H0.76001V19.81H2.28001V1.53003Z" fill="#000001"/>
</g>
<defs>
<clipPath id="clip0_1138_29425">
<rect width="32" height="32" fill="white"/>
</clipPath>
</defs>
</svg>
