<svg width="32" height="32" viewBox="0 0 32 32" fill="none" xmlns="http://www.w3.org/2000/svg">
<path d="M30.4751 4.57507H28.9551V15.2351H30.4751V4.57507Z" fill="#000001"/>
<path d="M28.955 15.235H27.425V16.765H28.955V15.235Z" fill="#000001"/>
<path d="M28.955 3.04504H27.425V4.57504H28.955V3.04504Z" fill="#000001"/>
<path d="M27.425 16.765H25.905V18.285H27.425V16.765Z" fill="#000001"/>
<path d="M27.425 7.61499H25.905V12.185H27.425V7.61499Z" fill="#000001"/>
<path d="M27.425 1.52502H25.905V3.04502H27.425V1.52502Z" fill="#000001"/>
<path d="M25.905 12.1851H24.385V13.7151H25.905V12.1851Z" fill="#000001"/>
<path d="M25.905 6.09497H24.385V7.61497H25.905V6.09497Z" fill="#000001"/>
<path d="M22.8551 4.57507H21.3351V15.2351H22.8551V4.57507Z" fill="#000001"/>
<path d="M21.3351 15.235H19.8151V16.765H21.3351V15.235Z" fill="#000001"/>
<path d="M21.3351 3.04504H19.8151V4.57504H21.3351V3.04504Z" fill="#000001"/>
<path d="M19.815 16.765H13.715V18.285H19.815V16.765Z" fill="#000001"/>
<path d="M18.285 13.7151H19.815V6.09507H18.285V4.57507H16.765V15.2351H18.285V13.7151Z" fill="#000001"/>
<path d="M19.815 1.52502H13.715V3.04502H19.815V1.52502Z" fill="#000001"/>
<path d="M13.7151 15.235H12.1951V16.765H13.7151V15.235Z" fill="#000001"/>
<path d="M13.715 3.04504H10.665V4.57504H13.715V3.04504Z" fill="#000001"/>
<path d="M12.195 13.715H10.665V15.235H12.195V13.715Z" fill="#000001"/>
<path d="M10.665 12.1851H9.14502V13.7151H10.665V12.1851Z" fill="#000001"/>
<path d="M10.665 4.57507H9.14502V6.09507H10.665V4.57507Z" fill="#000001"/>
<path d="M9.14499 13.715H7.61499V15.235H9.14499V13.715Z" fill="#000001"/>
<path d="M9.14499 6.09497H7.61499V7.61497H9.14499V6.09497Z" fill="#000001"/>
<path d="M7.61497 15.235H6.09497V28.955H7.61497V15.235Z" fill="#000001"/>
<path d="M7.61497 7.61499H6.09497V9.14499H7.61497V7.61499Z" fill="#000001"/>
<path d="M6.09507 9.14502H4.57507V10.665H6.09507V9.14502Z" fill="#000001"/>
<path d="M6.09504 28.9551H3.04504V30.4751H6.09504V28.9551Z" fill="#000001"/>
<path d="M4.57504 10.665H3.04504V12.185H4.57504V10.665Z" fill="#000001"/>
<path d="M3.04502 12.1851H1.52502V28.9551H3.04502V12.1851Z" fill="#000001"/>
</svg>
